<svg xmlns="http://www.w3.org/2000/svg" viewBox="0 0 360 480">
<defs>
 <linearGradient id="n" x1="0" y1="0" x2="1" y2="1"><stop stop-color="#42ecff"/><stop offset=".26" stop-color="#2468ff"/><stop offset=".52" stop-color="#bb5cff"/><stop offset=".74" stop-color="#36f1ff"/><stop offset="1" stop-color="#eb5aff"/></linearGradient>
 <filter id="g"><feGaussianBlur stdDeviation="5" result="b"/><feMerge><feMergeNode in="b"/><feMergeNode in="SourceGraphic"/></feMerge></filter>
</defs>
<g fill="none" filter="url(#g)">
 <rect x="18" y="18" width="324" height="444" rx="52" stroke="#07111f" stroke-width="30"/>
 <rect x="22" y="22" width="316" height="436" rx="48" stroke="url(#n)" stroke-width="15"/>
 <rect x="41" y="41" width="278" height="398" rx="31" stroke="#83f3ff" stroke-width="3"/>
 <path d="M20 112L0 84l48-5 18-51M340 112l20-28-48-5-18-51M20 368L0 396l48 5 18 51M340 368l20 28-48 5-18 51" stroke="#8f6cff" stroke-width="9"/>
 <path d="M180 0l32 38-32 38-32-38z" fill="#54edff" stroke="#b95cff" stroke-width="8"/>
 <circle cx="180" cy="465" r="26" fill="#071527" stroke="url(#n)" stroke-width="8"/><circle cx="180" cy="465" r="10" fill="#73efff"/>
</g></svg>