<svg xmlns="http://www.w3.org/2000/svg" viewBox="0 0 1600 900">
<defs>
 <radialGradient id="r"><stop stop-color="#ffae19"/><stop offset=".2" stop-color="#ff4b00"/><stop offset=".52" stop-color="#491006"/><stop offset="1" stop-color="#080404"/></radialGradient>
 <filter id="blur"><feGaussianBlur stdDeviation="16"/></filter>
</defs>
<rect width="1600" height="900" fill="#070303"/>
<path d="M0 650C230 510 355 760 570 640s340 95 520-38 310 45 510-105V900H0Z" fill="#190805"/>
<g fill="none" stroke="#ff6a00" stroke-width="18" opacity=".7" filter="url(#blur)"><path d="M0 690C240 520 370 760 585 630s340 100 520-40 310 50 495-100"/><path d="M0 820C260 705 430 850 650 748s370 80 540-32 250 35 410-60"/></g>
<g fill="#ff8b12" opacity=".72"><circle cx="150" cy="180" r="5"/><circle cx="330" cy="90" r="3"/><circle cx="770" cy="170" r="4"/><circle cx="1150" cy="120" r="5"/><circle cx="1420" cy="235" r="3"/></g>
</svg>