<svg xmlns="http://www.w3.org/2000/svg" viewBox="0 0 360 480">
<defs>
 <linearGradient id="l" x1="0" y1="0" x2="1" y2="1"><stop stop-color="#190603"/><stop offset=".18" stop-color="#ff4b00"/><stop offset=".38" stop-color="#3b0b03"/><stop offset=".58" stop-color="#ffb000"/><stop offset=".82" stop-color="#220806"/><stop offset="1" stop-color="#ff5a00"/></linearGradient>
 <filter id="f"><feGaussianBlur stdDeviation="7" result="b"/><feMerge><feMergeNode in="b"/><feMergeNode in="SourceGraphic"/></feMerge></filter>
</defs>
<g fill="none" filter="url(#f)">
 <rect x="18" y="18" width="324" height="444" rx="52" stroke="#ff5b00" stroke-width="32" opacity=".55"/>
 <rect x="23" y="23" width="314" height="434" rx="47" stroke="url(#l)" stroke-width="22"/>
 <rect x="42" y="42" width="276" height="396" rx="31" stroke="#ffba38" stroke-width="4"/>
 <path d="M18 92L2 48l38 19 16-45 21 54M342 92l16-44-38 19-16-45-21 54M18 388L2 432l38-19 16 45 21-54M342 388l16 44-38-19-16 45-21-54" fill="#1a0805" stroke="#ff6b00" stroke-width="7"/>
 <path d="M180 0l18 32 36 7-25 27 4 38-33-17-33 17 4-38-25-27 36-7z" fill="#ff9a15" stroke="#3c0e04" stroke-width="7"/>
</g></svg>